<svg version="1.1" id="Layer_1" xmlns="http://www.w3.org/2000/svg" xmlns:xlink="http://www.w3.org/1999/xlink" x="0px" y="0px"
	 viewBox="0 0 56.5 26.6" style="enable-background:new 0 0 56.5 26.6;" xml:space="preserve">
<style type="text/css">
	.st0{fill:#F9F9F9;}
</style>
<path class="st0" d="M34.7,4.3c0.3,0.2,0.6,0.3,1,0.3c0.6,0,1.2-0.2,1.6-0.7c0.4-0.5,0.6-1.1,0.6-1.7s-0.2-1.1-0.6-1.5l-0.4-0.4
	h-0.1C36.5,0.1,36.1,0,35.7,0c-0.6,0-1.1,0.2-1.5,0.7s-0.6,1-0.6,1.7c0,0.6,0.2,1.1,0.6,1.6C34.3,4.1,34.5,4.2,34.7,4.3"/>
<path class="st0" d="M40.2,24.9c-0.9,0-2-0.3-2.3-1.2c-0.1-0.2-0.1-0.4-0.1-0.7V8.9l-0.2-0.2c-1,0.2-2.3,0.4-3.9,0.5h-2.1v1.2
	c1.5,0,2.9,0.2,3.1,1.7V23c0,1.5-1.3,1.9-2.5,1.9s-2.5-0.4-2.5-1.9v-8.8c0-1.7-0.4-3-1.2-4.1c-0.8-1-2.2-1.5-3.9-1.5
	c-2,0-4.1,0.4-5.9,1.9c-0.4,0.4-0.8,0.7-1,1h-0.1V9.1l-0.2-0.2L12,9.3v1.1c1.1,0,2.4,0.4,2.5,1.7v9.7c-0.1,0.2-0.3,0.5-0.5,0.7
	c-1.2,1.3-3.9,2.3-5.5,2.1c-0.8-0.1-1.4-0.3-2-0.9c-0.5-0.6-0.8-1.5-0.8-2.8V9.1L5.4,8.9L0,9.3v1.1c1.1,0,2.3,0.3,2.5,1.7v8.7
	c0,1.9,0.4,3.3,1.2,4.3s2,1.5,3.6,1.5c3.4,0.1,5-0.9,6.3-1.9c0.4-0.3,0.7-0.6,0.9-0.9h0.1c0,0,0,2.3,2.5,2.3h3.1V25
	c-1,0-2.2-0.3-2.4-1.4c0-0.1-0.1-0.3-0.1-0.5v-9.3c0,0,0.1-0.4,0.9-1.2c1.4-1.2,3-1.9,4.5-1.9c1.2,0,2,0.3,2.5,1
	c0.6,0.7,0.9,1.6,0.9,2.8v8.6c0,1.5-1.3,1.9-2.5,1.9v1.1h16.3L40.2,24.9"/>
<path class="st0" d="M55,21.6c-0.6,0.9-1.2,1.6-1.9,2.1s-1.7,0.8-2.8,0.8c-0.8,0-1.5-0.2-2.1-0.5s-1.2-0.8-1.6-1.5
	c-0.9-1.3-1.4-3.1-1.4-5.2c0-1.4,0.1-2.5,0.4-3.5c0.3-1,0.6-1.8,1-2.3c1-1.3,2.1-1.7,3.3-1.7c1,0,1.6,0.3,2,0.6
	c-0.1,0.2-0.2,0.5-0.3,0.8c-0.1,0.5,0.1,1,0.4,1.4c0.3,0.4,0.7,0.6,1.2,0.7c0.2,0,0.4,0.1,0.5,0c0.3,0,0.6-0.1,0.8-0.3
	c0.4-0.3,0.6-0.7,0.7-1.2c0.1-0.5-0.1-1-0.4-1.4l-0.1-0.1c-0.2-0.2-0.4-0.4-0.6-0.5c-0.1-0.1-0.3-0.2-0.4-0.3
	c-1-0.6-2.2-0.9-3.8-0.9c-1.4,0-2.6,0.2-3.6,0.7s-1.9,1.2-2.5,2c-0.7,0.8-1.3,1.8-1.6,2.8c-0.4,1-0.6,2.2-0.6,3.3
	c0,2.7,0.7,4.9,2.1,6.6c0.5,0.6,1.1,1.1,1.8,1.5c1.1,0.6,2.4,1,4,1c1.3,0,2.6-0.4,3.8-1.2c1.2-0.8,2.2-1.8,3-3.2l0.2-0.3L55,21.6"/>
</svg>
